PathFileType	4	(X/Y/Z)	S00_P01_T02_Participants1-2_P1_0-100.trc
DataRate	CameraRate	NumFrames	NumMarkers	Units	OrigDataRate	OrigDataStartFrame	OrigNumFrames
60	60	5	21	m	60	87	100
Frame#	Time	RHip			RKnee			RAnkle			RBigToe			RSmallToe			RHeel			LHip			LKnee			LAnkle			LBigToe			LSmallToe			LHeel			Neck			Head			Nose			RShoulder			RElbow			RWrist			LShoulder			LElbow			LWrist		
		X1	Y1	Z1	X2	Y2	Z2	X3	Y3	Z3	X4	Y4	Z4	X5	Y5	Z5	X6	Y6	Z6	X7	Y7	Z7	X8	Y8	Z8	X9	Y9	Z9	X10	Y10	Z10	X11	Y11	Z11	X12	Y12	Z12	X13	Y13	Z13	X14	Y14	Z14	X15	Y15	Z15	X16	Y16	Z16	X17	Y17	Z17	X18	Y18	Z18	X19	Y19	Z19	X20	Y20	Z20	X21	Y21	Z21
88	1.4666666666666666	-1.0510310770872104	0.9408257837630123	-0.9743396261657918	-0.8758471325439676	0.9301923645468473	-0.7312642833711049	-0.8728062132927136	0.9026669731509305	-0.9649631408546487	-0.7735081326225122	0.8970022107238764	-1.0394719134812762	-0.7962535584345348	0.8765237270942636	-1.0342399545305383	-0.893311507553002	0.9081976748473384	-1.0082137151740593	-1.0515817999862207	0.9414405573083428	-1.118520076821194	-0.8780213904267842	0.9326719071540962	-1.3567236255477637	-0.8897247543261957	0.9106136751621944	-1.1238525476758967	-0.7892144435194818	0.9024014295375228	-1.0578846584069044	-0.8129464178130609	0.8826093171624075	-1.0617641272539229	-0.9115399720519293	0.9172566788333002	-1.0792707975798588	-1.0721772420476696	1.3509591155645513	-1.0454005948601646	-1.0379826574642799	1.5083242815941145	-1.058179688710572	-0.9875246457763254	1.413975612971615	-1.0444455458167285	-1.0865047050907557	1.2963770080420045	-0.9185987326647659	-1.0410056970349761	1.1225559249436212	-0.8311366043929953	-0.8882127706486664	1.0368792593395701	-0.9138779397812234	-1.080869442148041	1.2988218459295728	-1.1782688994416008	-1.0444010694028474	1.1264550830336222	-1.2646115695447397	-0.905239817278207	1.0583112045353613	-1.1409733975445358
89	1.4833333333333334	-1.051036732736817	0.9443876107091593	-0.9743341135928727	-0.8758541291906747	0.9337533874039453	-0.7312521970014031	-0.8742237622505284	0.906851256520092	-0.9650294914143878	-0.7753558743111628	0.9012877599249955	-1.0401258002569809	-0.7980886364406056	0.8808155050438523	-1.0348160250582517	-0.8949632764529765	0.9125077781257289	-1.008151773425489	-1.051586749130463	0.9450020448505925	-1.118514777910649	-0.8780242755433402	0.9362319647046087	-1.3567151697406132	-0.8897290481919439	0.9141743673570824	-1.1238440022289056	-0.78921896429097	0.9059618788556854	-1.0578735120262115	-0.812950954692215	0.8861696702449617	-1.061753568635108	-0.9115446039870089	0.9208175918935013	-1.0792624946053622	-1.0726752284524594	1.3544084826423224	-1.0457200436673528	-1.03799981615649	1.5118790333131886	-1.0581876579966296	-0.9875185145272157	1.4175444528994472	-1.0444232503283977	-1.0900868736185618	1.2991871575781457	-0.9211966574095934	-1.040746375496945	1.1249647274860954	-0.8332833845426275	-0.8865888151996136	1.0414647277037532	-0.9156998973889463	-1.0808758301630055	1.3023864312707016	-1.1782581953324582	-1.0444058548218385	1.1300176031341334	-1.2646031034164755	-0.9054383350410048	1.0639168287989529	-1.1394250160907484
90	1.5	-1.051042293179725	0.947886600282172	-0.9743286862234315	-0.8758610033876555	0.9372515838690525	-0.731240342727411	-0.8756160366822832	0.910963007390543	-0.9650853393330663	-0.777173817989627	0.9055007264584122	-1.0407562098053194	-0.7998937188686702	0.8850343985842558	-1.0353700392137477	-0.8965848133662608	0.9167430056383871	-1.0080799730501582	-1.0515916161329575	0.948500700315496	-1.1185095457351342	-0.878027111235357	0.9397292121936698	-1.3567068246026983	-0.8897332671251962	0.9176722395805287	-1.1238355925067878	-0.7892234039462498	0.9094595115047623	-1.0578625594968427	-0.8129554099581747	0.8896672085223849	-1.0617431924286669	-0.9115491556456022	0.9243156814756429	-1.0792543255037859	-1.073915759673071	1.3576185520170823	-1.0465388122308557	-1.03801666652098	1.5153710501926072	-1.0581954434091219	-0.9874602657848423	1.4210627507948492	-1.0443602744177658	-1.0932653964439556	1.3020177429811834	-0.9235032353836732	-1.0404958296400926	1.1273563092723045	-0.8354038544827804	-0.8850186120060272	1.0459797625214413	-0.9174483661520089	-1.080882131173735	1.3058881299710141	-1.1782475969252089	-1.0444105706793272	1.1335172719757276	-1.2645947215735216	-0.9056553627668403	1.0694352249290011	-1.1379231277506816
91	1.5166666666666666	-1.0510477264959825	0.9513027646607681	-0.9743233755809135	-0.8758677158940328	0.9406669708663188	-0.7312287870797347	-0.8769750507588239	0.9149786346497515	-0.9651309538573449	-0.7789513372233746	0.9096168274188462	-1.0413602738619787	-0.8016582797311086	0.8891561028826329	-1.0358995647755962	-0.8981668668399938	0.92087906445117	-1.0079994195773874	-1.0515963730068938	0.9519165378285381	-1.11850441156497	-0.8780298813515832	0.9431436719892448	-1.3566986399408678	-0.8897373870972497	0.9210873105559019	-1.12382736730604	-0.7892277373171424	0.9128743476422039	-1.0578518634644516	-0.8129597583671373	0.8930819526805706	-1.061733058043956	-0.9115536010589415	0.9277309650379417	-1.0792463375485188	-1.0761489792241503	1.3605096390190312	-1.0480254550687789	-1.0380331127101452	1.5187803856394004	-1.0582030028208578	-0.9873185363759651	1.4245179415616893	-1.044232106625698	-1.095500161895173	1.3049626466888937	-0.9251252029597908	-1.040255253261345	1.129715473027366	-0.8374848812486202	-0.8835096759313463	1.0503967088924606	-0.9191160597153699	-1.080888307773819	1.3093069387523193	-1.1782371695166207	-1.0444151892799685	1.1369340979483662	-1.2645864755588867	-0.9058882370177377	1.074833841063227	-1.1364753149335238
92	1.5333333333333334	-1.0510529991761905	0.9546151882437622	-0.9743182149134326	-0.8758742256115971	0.943978637814271	-0.7312175993427038	-0.8782924630299608	0.9188734339846829	-0.9651667818002171	-0.7806772764565377	0.9136106047480227	-1.0419352064123835	-0.8033712759347683	0.8931551403629895	-1.0364022706036722	-0.899699787331912	0.9248905189321901	-1.007911462510295	-1.0516009903459413	0.9552286438390233	-1.1184994086564568	-0.8780325689361164	0.9464544392231088	-1.356690668613831	-0.8897413829241922	0.9243986715773634	-1.1238193779926122	-0.789231938069176	0.916185480079427	-1.057841489551257	-0.8129639735092312	0.896392996081012	-1.0617232277379185	-0.9115579130021063	0.931042532543568	-1.0792385804679234	-1.0793319625852227	1.3630705469147633	-1.0501517726082443	-1.0380490545152767	1.5220861675900943	-1.0582102929934494	-0.9870718817757796	1.4278941733085397	-1.0440220264075815	-1.0967468972556278	1.308010736470577	-0.926029738308874	-1.0400258151663093	1.1320258548424293	-0.8395125798312447	-0.8820693981869923	1.0546867024692963	-0.9206960926007376	-1.0808943203238797	1.3126219258537406	-1.1782269830040675	-1.044419681343243	1.140247161518222	-1.2645784205481534	-0.9061337868286976	1.08007846839146	-1.135089126412744
